<?xml version="1.0" encoding="UTF-8"?>
<svg xmlns="http://www.w3.org/2000/svg" style="stroke-dasharray:none; shape-rendering:auto; font-family:'Arial'; text-rendering:auto; fill-opacity:1; color-interpolation:auto; color-rendering:auto; font-size:12; fill:black; stroke:black; image-rendering:auto; stroke-miterlimit:10; stroke-linecap:square; stroke-linejoin:miter; font-style:normal; stroke-width:1; stroke-dashoffset:0; font-weight:normal; stroke-opacity:1;" contentScriptType="text/ecmascript" preserveAspectRatio="xMidYMid meet" zoomAndPan="magnify" version="1.0" contentStyleType="text/css" xml:xlink="http://www.w3.org/1999/xlink" width="871" height="931"><rect x="40" y="145" width="801" height="145" ry="0" rx="0" style="stroke:#000000; fill:#C0C0C0" /><g componentSequence="9"><text x="-217" y="49" transform="rotate(270)" text-anchor="middle" style="font-weight:bold;font-size:10px;stroke:none; fill:#434343"><tspan dy="14" x="-217">Assignee</tspan></text></g><rect x="0" y="0" width="871" height="931" ry="0" rx="0" style="stroke:#000000; fill:#FFFFFF" /><rect x="30" y="775" width="841" height="156" ry="0" rx="0" style="stroke:#000000; fill:#D6E0D0" /><g componentSequence="33"><text x="-853" y="39" transform="rotate(270)" text-anchor="middle" style="font-weight:bold;font-size:10px;stroke:none; fill:#434343"><tspan dy="14" x="-853">Superintendencia</tspan></text></g><rect x="30" y="465" width="841" height="155" ry="0" rx="0" style="stroke:#000000; fill:#D0DAAE" /><g componentSequence="12"><text x="-542" y="39" transform="rotate(270)" text-anchor="middle" style="font-weight:bold;font-size:10px;stroke:none; fill:#434343"><tspan dy="14" x="-542">Gestor Compras</tspan></text></g><rect x="30" y="620" width="841" height="155" ry="0" rx="0" style="stroke:#000000; fill:#82B0B7" /><g componentSequence="10"><text x="-697" y="39" transform="rotate(270)" text-anchor="middle" style="font-weight:bold;font-size:10px;stroke:none; fill:#434343"><tspan dy="14" x="-697">Juridico</tspan></text></g><rect x="30" y="310" width="841" height="155" ry="0" rx="0" style="stroke:#000000; fill:#ADC9AC" /><g componentSequence="11"><text x="-387" y="39" transform="rotate(270)" text-anchor="middle" style="font-weight:bold;font-size:10px;stroke:none; fill:#434343"><tspan dy="14" x="-387">Comprador</tspan></text></g><rect x="30" y="0" width="841" height="155" ry="0" rx="0" style="stroke:#000000; fill:#C0C0C0" /><g componentSequence="3"><text x="-77" y="39" transform="rotate(270)" text-anchor="middle" style="font-weight:bold;font-size:10px;stroke:none; fill:#434343"><tspan dy="14" x="-77">Solicitante</tspan></text></g><rect x="30" y="155" width="841" height="155" ry="0" rx="0" style="stroke:#000000; fill:#9F9F9F" /><g componentSequence="2"><text x="-232" y="39" transform="rotate(270)" text-anchor="middle" style="font-weight:bold;font-size:10px;stroke:none; fill:#434343"><tspan dy="14" x="-232">Lider</tspan></text></g><g componentSequence="1"><text x="-465" y="9" transform="rotate(270)" text-anchor="middle" style="font-weight:bold;font-size:10px;stroke:none; fill:#434343"><tspan dy="14" x="-465">Solicitação de Contratos</tspan></text></g><g sequence="4"><ellipse cx="202" cy="80" rx="17" ry="17" stroke-width="1" style="fill:url(#linearGradient66FF6696FF96B6FFB6_1254666576);" stroke="336633" /></g><g sequence="13"><rect x="150" y="173" width="106" height="123" ry="5" rx="5" style="fill:url(#linearGradientF8FBFEEDF5FCDEEDFAD4E7F8E2E5E9_1141851769);" stroke="191970" /></g><g componentSequence="13"><text x="203" y="188" text-anchor="middle" style="font-weight:bold;font-size:10px;stroke:none; fill:#333399"><tspan dy="14" x="203">Aprovação</tspan><tspan dy="14" x="203">do escopo</tspan><tspan dy="14" x="203">e analise</tspan><tspan dy="14" x="203">de verba</tspan></text></g><g sequence="14"><rect x="150" y="362" width="106" height="66" ry="5" rx="5" style="fill:url(#linearGradientF8FBFEEDF5FCDEEDFAD4E7F8E2E5E9_1076943392);" stroke="191970" /></g><g componentSequence="14"><text x="203" y="384" text-anchor="middle" style="font-weight:bold;font-size:10px;stroke:none; fill:#333399"><tspan dy="14" x="203">Cotação</tspan></text></g><g sequence="15"><rect x="430" y="338" width="106" height="104" ry="5" rx="5" style="fill:url(#linearGradientF8FBFEEDF5FCDEEDFAD4E7F8E2E5E9_87182402);" stroke="191970" /></g><g componentSequence="15"><text x="483" y="353" text-anchor="middle" style="font-weight:bold;font-size:10px;stroke:none; fill:#333399"><tspan dy="14" x="483">Confeccçã</tspan><tspan dy="14" x="483">o do</tspan><tspan dy="14" x="483">contrato</tspan></text></g><g sequence="16"><rect x="150" y="493" width="106" height="104" ry="5" rx="5" style="fill:url(#linearGradientF8FBFEEDF5FCDEEDFAD4E7F8E2E5E9_176107397);" stroke="191970" /></g><g componentSequence="16"><text x="203" y="508" text-anchor="middle" style="font-weight:bold;font-size:10px;stroke:none; fill:#333399"><tspan dy="14" x="203">Aprovação</tspan><tspan dy="14" x="203">contrataçã</tspan><tspan dy="14" x="203">o</tspan></text></g><g sequence="17"><rect x="430" y="657" width="106" height="85" ry="5" rx="5" style="fill:url(#linearGradientF8FBFEEDF5FCDEEDFAD4E7F8E2E5E9_889031741);" stroke="191970" /></g><g componentSequence="17"><text x="483" y="672" text-anchor="middle" style="font-weight:bold;font-size:10px;stroke:none; fill:#333399"><tspan dy="14" x="483">Analise do</tspan><tspan dy="14" x="483">Contrato</tspan></text></g><g sequence="18"><rect x="610" y="648" width="106" height="104" ry="5" rx="5" style="fill:url(#linearGradientF8FBFEEDF5FCDEEDFAD4E7F8E2E5E9_1918546264);" stroke="191970" /></g><g componentSequence="18"><text x="663" y="663" text-anchor="middle" style="font-weight:bold;font-size:10px;stroke:none; fill:#333399"><tspan dy="14" x="663">Assinatura</tspan><tspan dy="14" x="663">do contrato</tspan><tspan dy="14" x="663"></tspan></text></g><g sequence="27"><ellipse cx="377" cy="234" rx="17" ry="17" stroke-width="3" style="fill:url(#linearGradientFF6666FF9696FFB6B6_1696445197);" stroke="993333" /></g><g sequence="29"><rect x="610" y="338" width="106" height="104" ry="5" rx="5" style="fill:url(#linearGradientF8FBFEEDF5FCDEEDFAD4E7F8E2E5E9_376290092);" stroke="191970" /></g><g componentSequence="29"><text x="663" y="353" text-anchor="middle" style="font-weight:bold;font-size:10px;stroke:none; fill:#333399"><tspan dy="14" x="663">Criação do</tspan><tspan dy="14" x="663">contrato no</tspan><tspan dy="14" x="663">RM</tspan></text></g><g sequence="31"><ellipse cx="797" cy="389" rx="17" ry="17" stroke-width="3" style="fill:url(#linearGradientFF6666FF9696FFB6B6_1311326648);" stroke="993333" /></g><g sequence="34"><rect x="150" y="813" width="106" height="104" ry="5" rx="5" style="fill:url(#linearGradientF8FBFEEDF5FCDEEDFAD4E7F8E2E5E9_1767831892);" stroke="191970" /></g><g componentSequence="34"><text x="203" y="828" text-anchor="middle" style="font-weight:bold;font-size:10px;stroke:none; fill:#333399"><tspan dy="14" x="203">Aprovação</tspan><tspan dy="14" x="203">Superinten</tspan><tspan dy="14" x="203">dência</tspan></text></g><g sequence="37"><ellipse cx="77" cy="544" rx="17" ry="17" stroke-width="3" style="fill:url(#linearGradientFF6666FF9696FFB6B6_1632873129);" stroke="993333" /></g><g sequence="40"><rect x="300" y="493" width="106" height="104" ry="5" rx="5" style="fill:url(#linearGradientF8FBFEEDF5FCDEEDFAD4E7F8E2E5E9_446486900);" stroke="191970" /></g><g componentSequence="40"><text x="353" y="508" text-anchor="middle" style="font-weight:bold;font-size:10px;stroke:none; fill:#333399"><tspan dy="14" x="353">Destina ao</tspan><tspan dy="14" x="353">comprador</tspan></text></g><g componentSequence="21"><text x="212" y="135" style="font-size:10px;font-weight:none;stroke:none; fill:#333399" text-anchor="left" /></g><g componentSequence="22"><text x="213" y="329" style="font-size:10px;font-weight:none;stroke:none; fill:#333399" text-anchor="left" /></g><g componentSequence="23"><text x="213" y="460" style="font-size:10px;font-weight:none;stroke:none; fill:#333399" text-anchor="left" /></g><g componentSequence="25"><text x="493" y="549" style="font-size:10px;font-weight:none;stroke:none; fill:#333399" text-anchor="left" /></g><g componentSequence="26"><text x="583" y="699" style="font-size:10px;font-weight:none;stroke:none; fill:#333399" text-anchor="left" /></g><g componentSequence="28"><text x="318" y="234" style="font-size:10px;font-weight:none;stroke:none; fill:#333399" text-anchor="left" /></g><g componentSequence="30"><text x="673" y="545" style="font-size:10px;font-weight:none;stroke:none; fill:#333399" text-anchor="left" /></g><g componentSequence="32"><text x="758" y="389" style="font-size:10px;font-weight:none;stroke:none; fill:#333399" text-anchor="left" /></g><g componentSequence="35"><text x="213" y="705" style="font-size:10px;font-weight:none;stroke:none; fill:#333399" text-anchor="left" /></g><g componentSequence="38"><text x="132" y="544" style="font-size:10px;font-weight:none;stroke:none; fill:#333399" text-anchor="left" /></g><g componentSequence="39"><text x="213" y="460" style="font-size:10px;font-weight:none;stroke:none; fill:#333399" text-anchor="left" /></g><g componentSequence="41"><text x="362" y="779" style="font-size:10px;font-weight:none;stroke:none; fill:#333399" text-anchor="left" /></g><g componentSequence="42"><text x="362" y="403" style="font-size:10px;font-weight:none;stroke:none; fill:#333399" text-anchor="left" /></g><g componentSequence="43"><text x="333" y="402" style="font-size:10px;font-weight:none;stroke:none; fill:#333399" text-anchor="left" /></g><path style="fill:none; stroke:#000000;stroke-width:1" d="M202.0 98.0 L202.0 172.0" /><polygon style="fill:#000000; stroke:#000000;" points=" 207 162 202 172 197 162 202 164" /><path style="fill:none; stroke:#000000;stroke-width:1" d="M202.0 296.0 L202.0 360.0" /><polygon style="fill:#000000; stroke:#000000;" points=" 207 350 202 360 197 350 202 352" /><path style="fill:none; stroke:#000000;stroke-width:1" d="M256.0 233.0 L358.0 233.0" /><polygon style="fill:#000000; stroke:#000000;" points=" 348 228 358 233 348 238 350 233" /><path style="fill:none; stroke:#000000;stroke-width:1" d="M202.0 428.0 L202.0 492.0" /><polygon style="fill:#000000; stroke:#000000;" points=" 207 482 202 492 197 482 202 484" /><path style="fill:none; stroke:#000000;stroke-width:1" d="M202.0 492.0 L202.0 428.0" /><polygon style="fill:#000000; stroke:#000000;" points=" 197 438 202 428 207 438 202 436" /><path style="fill:none; stroke:#000000;stroke-width:1" d="M482.0 442.0 L482.0 656.0" /><polygon style="fill:#000000; stroke:#000000;" points=" 487 646 482 656 477 646 482 648" /><path style="fill:none; stroke:#000000;stroke-width:1" d="M351.0 492.0 L352.0 390.0 L428.0 389.0" /><polygon style="fill:#000000; stroke:#000000;" points=" 418 384 428 389 418 394 420 389" /><path style="fill:none; stroke:#000000;stroke-width:1" d="M202.0 597.0 L202.0 812.0" /><polygon style="fill:#000000; stroke:#000000;" points=" 207 802 202 812 197 802 202 804" /><path style="fill:none; stroke:#000000;stroke-width:1" d="M148.0 544.0 L95.0 544.0" /><polygon style="fill:#000000; stroke:#000000;" points=" 105 549 95 544 105 539 103 544" /><path style="fill:none; stroke:#000000;stroke-width:1" d="M536.0 700.0 L608.0 698.0" /><polygon style="fill:#000000; stroke:#000000;" points=" 598 693 608 698 598 703 600 698" /><path style="fill:none; stroke:#000000;stroke-width:1" d="M662.0 646.0 L662.0 442.0" /><polygon style="fill:#000000; stroke:#000000;" points=" 657 452 662 442 667 452 662 450" /><path style="fill:none; stroke:#000000;stroke-width:1" d="M716.0 389.0 L778.0 389.0" /><polygon style="fill:#000000; stroke:#000000;" points=" 768 384 778 389 768 394 770 389" /><path style="fill:none; stroke:#000000;stroke-width:1" d="M256.0 864.0 L352.0 864.0 L351.0 597.0" /><polygon style="fill:#000000; stroke:#000000;" points=" 346 607 351 597 356 607 351 605" /><path style="fill:none; stroke:#000000;stroke-width:1" d="M247.0 492.0 L342.0 379.0 L381.0 379.0 L406.0 379.0 L422.0 379.0 L428.0 380.0" /><polygon style="fill:#000000; stroke:#000000;" points=" 419 373 428 380 417 383 420 379" /><defs><linearGradient xmlns:xlink="http://www.w3.org/1999/xlink" xlink:href="#linearGradient66FF6696FF96B6FFB6" id="linearGradient66FF6696FF96B6FFB6_1254666576" x1="0" y1="63.0" x2="0" y2="98.0" gradientUnits="userSpaceOnUse" xlink:type="simple" xlink:actuate="onLoad" xlink:show="other" /><linearGradient id="linearGradient66FF6696FF96B6FFB6"><stop style="stop-color:#66FF66;stop-opacity:1;" offset="0.0" id="stop66FF66" /><stop style="stop-color:#96FF96;stop-opacity:1;" offset="0.5" id="stop96FF96" /><stop style="stop-color:#B6FFB6;stop-opacity:1;" offset="1.0" id="stopB6FFB6" /></linearGradient><linearGradient xmlns:xlink="http://www.w3.org/1999/xlink" xlink:href="#linearGradientF8FBFEEDF5FCDEEDFAD4E7F8E2E5E9" id="linearGradientF8FBFEEDF5FCDEEDFAD4E7F8E2E5E9_1141851769" x1="0" y1="173.0" x2="0" y2="279.0" gradientUnits="userSpaceOnUse" xlink:type="simple" xlink:actuate="onLoad" xlink:show="other" /><linearGradient id="linearGradientF8FBFEEDF5FCDEEDFAD4E7F8E2E5E9"><stop style="stop-color:#F8FBFE;stop-opacity:1;" offset="0.0" id="stopF8FBFE" /><stop style="stop-color:#EDF5FC;stop-opacity:1;" offset="0.25" id="stopEDF5FC" /><stop style="stop-color:#DEEDFA;stop-opacity:1;" offset="0.5" id="stopDEEDFA" /><stop style="stop-color:#D4E7F8;stop-opacity:1;" offset="0.75" id="stopD4E7F8" /><stop style="stop-color:#E2E5E9;stop-opacity:1;" offset="1.0" id="stopE2E5E9" /></linearGradient><linearGradient xmlns:xlink="http://www.w3.org/1999/xlink" xlink:href="#linearGradientF8FBFEEDF5FCDEEDFAD4E7F8E2E5E9" id="linearGradientF8FBFEEDF5FCDEEDFAD4E7F8E2E5E9_1076943392" x1="0" y1="362.0" x2="0" y2="468.0" gradientUnits="userSpaceOnUse" xlink:type="simple" xlink:actuate="onLoad" xlink:show="other" /><linearGradient xmlns:xlink="http://www.w3.org/1999/xlink" xlink:href="#linearGradientF8FBFEEDF5FCDEEDFAD4E7F8E2E5E9" id="linearGradientF8FBFEEDF5FCDEEDFAD4E7F8E2E5E9_87182402" x1="0" y1="338.0" x2="0" y2="444.0" gradientUnits="userSpaceOnUse" xlink:type="simple" xlink:actuate="onLoad" xlink:show="other" /><linearGradient xmlns:xlink="http://www.w3.org/1999/xlink" xlink:href="#linearGradientF8FBFEEDF5FCDEEDFAD4E7F8E2E5E9" id="linearGradientF8FBFEEDF5FCDEEDFAD4E7F8E2E5E9_176107397" x1="0" y1="493.0" x2="0" y2="599.0" gradientUnits="userSpaceOnUse" xlink:type="simple" xlink:actuate="onLoad" xlink:show="other" /><linearGradient xmlns:xlink="http://www.w3.org/1999/xlink" xlink:href="#linearGradientF8FBFEEDF5FCDEEDFAD4E7F8E2E5E9" id="linearGradientF8FBFEEDF5FCDEEDFAD4E7F8E2E5E9_889031741" x1="0" y1="657.0" x2="0" y2="763.0" gradientUnits="userSpaceOnUse" xlink:type="simple" xlink:actuate="onLoad" xlink:show="other" /><linearGradient xmlns:xlink="http://www.w3.org/1999/xlink" xlink:href="#linearGradientF8FBFEEDF5FCDEEDFAD4E7F8E2E5E9" id="linearGradientF8FBFEEDF5FCDEEDFAD4E7F8E2E5E9_1918546264" x1="0" y1="648.0" x2="0" y2="754.0" gradientUnits="userSpaceOnUse" xlink:type="simple" xlink:actuate="onLoad" xlink:show="other" /><linearGradient xmlns:xlink="http://www.w3.org/1999/xlink" xlink:href="#linearGradientFF6666FF9696FFB6B6" id="linearGradientFF6666FF9696FFB6B6_1696445197" x1="0" y1="217.0" x2="0" y2="252.0" gradientUnits="userSpaceOnUse" xlink:type="simple" xlink:actuate="onLoad" xlink:show="other" /><linearGradient id="linearGradientFF6666FF9696FFB6B6"><stop style="stop-color:#FF6666;stop-opacity:1;" offset="0.0" id="stopFF6666" /><stop style="stop-color:#FF9696;stop-opacity:1;" offset="0.5" id="stopFF9696" /><stop style="stop-color:#FFB6B6;stop-opacity:1;" offset="1.0" id="stopFFB6B6" /></linearGradient><linearGradient xmlns:xlink="http://www.w3.org/1999/xlink" xlink:href="#linearGradientF8FBFEEDF5FCDEEDFAD4E7F8E2E5E9" id="linearGradientF8FBFEEDF5FCDEEDFAD4E7F8E2E5E9_376290092" x1="0" y1="338.0" x2="0" y2="444.0" gradientUnits="userSpaceOnUse" xlink:type="simple" xlink:actuate="onLoad" xlink:show="other" /><linearGradient xmlns:xlink="http://www.w3.org/1999/xlink" xlink:href="#linearGradientFF6666FF9696FFB6B6" id="linearGradientFF6666FF9696FFB6B6_1311326648" x1="0" y1="372.0" x2="0" y2="407.0" gradientUnits="userSpaceOnUse" xlink:type="simple" xlink:actuate="onLoad" xlink:show="other" /><linearGradient xmlns:xlink="http://www.w3.org/1999/xlink" xlink:href="#linearGradientF8FBFEEDF5FCDEEDFAD4E7F8E2E5E9" id="linearGradientF8FBFEEDF5FCDEEDFAD4E7F8E2E5E9_1767831892" x1="0" y1="813.0" x2="0" y2="919.0" gradientUnits="userSpaceOnUse" xlink:type="simple" xlink:actuate="onLoad" xlink:show="other" /><linearGradient xmlns:xlink="http://www.w3.org/1999/xlink" xlink:href="#linearGradientFF6666FF9696FFB6B6" id="linearGradientFF6666FF9696FFB6B6_1632873129" x1="0" y1="527.0" x2="0" y2="562.0" gradientUnits="userSpaceOnUse" xlink:type="simple" xlink:actuate="onLoad" xlink:show="other" /><linearGradient xmlns:xlink="http://www.w3.org/1999/xlink" xlink:href="#linearGradientF8FBFEEDF5FCDEEDFAD4E7F8E2E5E9" id="linearGradientF8FBFEEDF5FCDEEDFAD4E7F8E2E5E9_446486900" x1="0" y1="493.0" x2="0" y2="599.0" gradientUnits="userSpaceOnUse" xlink:type="simple" xlink:actuate="onLoad" xlink:show="other" /></defs></svg>
